<svg width="24" height="22" viewBox="0 0 24 22" fill="none" xmlns="http://www.w3.org/2000/svg">
<path d="M6.00786 1.9153L5.29135 2.63182C1.31655 6.60662 0.97096 12.8364 4.25356 17.2034V15.0751H6.28049V20.1282H0.503754V18.1013H2.39893C-1.22825 12.96 -0.742804 5.80193 3.85933 1.19879L4.57584 0.482269L6.00786 1.9153ZM10.1408 6.10191C10.0392 5.92586 9.87178 5.79737 9.67545 5.74473C9.47912 5.69208 9.26991 5.71958 9.09385 5.82118C8.9178 5.92279 8.78932 6.09016 8.73667 6.2865C8.68402 6.48283 8.71152 6.69203 8.81313 6.86809L13.8977 15.673L9.44249 17.0747L9.43032 17.2571L14.6953 19.433C14.9152 19.5242 15.1645 19.507 15.3712 19.3884L21.5898 15.7977C21.7292 15.7172 21.8397 15.5949 21.9057 15.4481C21.9717 15.3013 21.9899 15.1375 21.9577 14.9798L20.8105 9.37945C20.7752 9.2071 20.6817 9.05212 20.5457 8.9405C20.4097 8.82887 20.2395 8.76737 20.0636 8.7663L15.8101 8.74603C15.6742 8.74528 15.5406 8.7806 15.4229 8.84839L12.6511 10.4497L10.1408 6.10191ZM8.08039 4.06688C8.39801 3.88342 8.74866 3.76431 9.11231 3.71635C9.47596 3.6684 9.84549 3.69254 10.1998 3.78741C10.5541 3.88227 10.8863 4.04599 11.1773 4.26922C11.4684 4.49246 11.7126 4.77083 11.8961 5.08845L13.393 7.6819L14.4095 7.09409C14.838 6.84683 15.3245 6.71778 15.8192 6.72012L20.0727 6.74039C20.7142 6.74341 21.3351 6.96707 21.8311 7.37382C22.3272 7.78056 22.6682 8.3456 22.7969 8.97406L23.9431 14.5724C24.0609 15.147 23.9948 15.7441 23.7544 16.279C23.5139 16.814 23.1112 17.2597 22.6033 17.553L16.3847 21.1437C16.0139 21.3577 15.5989 21.4836 15.1717 21.5117C14.7445 21.5398 14.3166 21.4694 13.921 21.3059L7.31523 18.5766L7.4257 16.8598C7.47637 16.0754 8.00337 15.4024 8.75333 15.1663L10.8786 14.4974L7.05781 7.88155C6.68777 7.23994 6.58773 6.47762 6.77969 5.76226C6.97164 5.04689 7.43886 4.43706 8.08039 4.06688Z" fill="black"/>
</svg>
