<svg width="21" height="22" viewBox="0 0 21 22" fill="none" xmlns="http://www.w3.org/2000/svg">
<path fill-rule="evenodd" clip-rule="evenodd" d="M7.49946 3.50085C7.66242 3.50089 7.82094 3.554 7.95103 3.65215C8.08112 3.75031 8.1757 3.88816 8.22046 4.04485L9.03346 6.89085C9.20851 7.50377 9.53691 8.06195 9.98763 8.51268C10.4384 8.96341 10.9965 9.2918 11.6095 9.46685L14.4555 10.2799C14.6121 10.3247 14.7498 10.4193 14.8478 10.5494C14.9459 10.6795 14.9989 10.838 14.9989 11.0009C14.9989 11.1637 14.9459 11.3222 14.8478 11.4523C14.7498 11.5824 14.6121 11.677 14.4555 11.7219L11.6095 12.5349C10.9965 12.7099 10.4384 13.0383 9.98763 13.489C9.53691 13.9398 9.20851 14.4979 9.03346 15.1109L8.22046 17.9569C8.1756 18.1134 8.08098 18.2512 7.9509 18.3492C7.82082 18.4473 7.66235 18.5003 7.49946 18.5003C7.33657 18.5003 7.1781 18.4473 7.04802 18.3492C6.91794 18.2512 6.82332 18.1134 6.77846 17.9569L5.96546 15.1109C5.79041 14.4979 5.46201 13.9398 5.01129 13.489C4.56056 13.0383 4.00238 12.7099 3.38946 12.5349L0.543459 11.7219C0.386864 11.677 0.249131 11.5824 0.151082 11.4523C0.0530334 11.3222 0 11.1637 0 11.0009C0 10.838 0.0530334 10.6795 0.151082 10.5494C0.249131 10.4193 0.386864 10.3247 0.543459 10.2799L3.38946 9.46685C4.00238 9.2918 4.56056 8.96341 5.01129 8.51268C5.46201 8.06195 5.79041 7.50377 5.96546 6.89085L6.77846 4.04485C6.82322 3.88816 6.9178 3.75031 7.04789 3.65215C7.17798 3.554 7.3365 3.50089 7.49946 3.50085ZM16.4995 0.500855C16.6668 0.500761 16.8293 0.556618 16.9612 0.659541C17.0931 0.762463 17.1869 0.90654 17.2275 1.06885L17.4855 2.10485C17.7215 3.04485 18.4555 3.77885 19.3955 4.01485L20.4315 4.27285C20.5941 4.31314 20.7385 4.40671 20.8418 4.53865C20.945 4.6706 21.0011 4.83331 21.0011 5.00085C21.0011 5.16839 20.945 5.33111 20.8418 5.46306C20.7385 5.595 20.5941 5.68857 20.4315 5.72885L19.3955 5.98685C18.4555 6.22285 17.7215 6.95685 17.4855 7.89685L17.2275 8.93285C17.1872 9.09548 17.0936 9.23994 16.9617 9.34319C16.8297 9.44643 16.667 9.50253 16.4995 9.50253C16.3319 9.50253 16.1692 9.44643 16.0373 9.34319C15.9053 9.23994 15.8117 9.09548 15.7715 8.93285L15.5135 7.89685C15.3981 7.43528 15.1594 7.01375 14.823 6.67733C14.4866 6.34091 14.065 6.10224 13.6035 5.98685L12.5675 5.72885C12.4048 5.68857 12.2604 5.595 12.1571 5.46306C12.0539 5.33111 11.9978 5.16839 11.9978 5.00085C11.9978 4.83331 12.0539 4.6706 12.1571 4.53865C12.2604 4.40671 12.4048 4.31314 12.5675 4.27285L13.6035 4.01485C14.065 3.89947 14.4866 3.6608 14.823 3.32438C15.1594 2.98796 15.3981 2.56642 15.5135 2.10485L15.7715 1.06885C15.8121 0.90654 15.9058 0.762463 16.0377 0.659541C16.1696 0.556618 16.3321 0.500761 16.4995 0.500855ZM14.9995 14.0009C15.157 14.0008 15.3105 14.0503 15.4383 14.1423C15.5661 14.2344 15.6617 14.3644 15.7115 14.5139L16.1055 15.6969C16.2555 16.1439 16.6055 16.4959 17.0535 16.6449L18.2365 17.0399C18.3854 17.0899 18.5149 17.1854 18.6067 17.313C18.6984 17.4406 18.7478 17.5937 18.7478 17.7509C18.7478 17.908 18.6984 18.0612 18.6067 18.1887C18.5149 18.3163 18.3854 18.4118 18.2365 18.4619L17.0535 18.8569C16.6065 19.0069 16.2545 19.3569 16.1055 19.8049L15.7105 20.9879C15.6604 21.1368 15.5649 21.2663 15.4373 21.3581C15.3098 21.4498 15.1566 21.4992 14.9995 21.4992C14.8423 21.4992 14.6892 21.4498 14.5616 21.3581C14.434 21.2663 14.3385 21.1368 14.2885 20.9879L13.8935 19.8049C13.8198 19.5841 13.6958 19.3836 13.5313 19.219C13.3667 19.0545 13.1662 18.9305 12.9455 18.8569L11.7625 18.4619C11.6135 18.4118 11.484 18.3163 11.3923 18.1887C11.3005 18.0612 11.2512 17.908 11.2512 17.7509C11.2512 17.5937 11.3005 17.4406 11.3923 17.313C11.484 17.1854 11.6135 17.0899 11.7625 17.0399L12.9455 16.6449C13.3925 16.4949 13.7445 16.1449 13.8935 15.6969L14.2885 14.5139C14.3382 14.3646 14.4336 14.2347 14.5612 14.1426C14.6888 14.0506 14.8421 14.001 14.9995 14.0009Z" fill="black"/>
</svg>
