<svg width="24" height="22" viewBox="0 0 24 22" fill="none" xmlns="http://www.w3.org/2000/svg">
<path d="M20.5714 0.714294H3.42857C2.51956 0.715287 1.64807 1.07683 1.0053 1.7196C0.362535 2.36236 0.000992601 3.23386 0 4.14287V17.8572C0.000992601 18.7662 0.362535 19.6377 1.0053 20.2804C1.64807 20.9232 2.51956 21.2847 3.42857 21.2857H20.5714C21.4804 21.2847 22.3519 20.9232 22.9947 20.2804C23.6375 19.6377 23.999 18.7662 24 17.8572V4.14287C23.999 3.23386 23.6375 2.36236 22.9947 1.7196C22.3519 1.07683 21.4804 0.715287 20.5714 0.714294ZM16.2857 4.14287C16.7943 4.14287 17.2915 4.29368 17.7143 4.57623C18.1372 4.85878 18.4668 5.26038 18.6614 5.73025C18.856 6.20012 18.907 6.71715 18.8077 7.21596C18.7085 7.71476 18.4636 8.17295 18.104 8.53257C17.7444 8.89219 17.2862 9.13709 16.7874 9.23631C16.2886 9.33553 15.7715 9.28461 15.3017 9.08998C14.8318 8.89536 14.4302 8.56577 14.1476 8.1429C13.8651 7.72003 13.7143 7.22288 13.7143 6.71429C13.715 6.03253 13.9861 5.37889 14.4682 4.8968C14.9503 4.41472 15.6039 4.14357 16.2857 4.14287ZM3.42857 19.5714C2.97391 19.5714 2.53788 19.3908 2.21639 19.0693C1.8949 18.7478 1.71429 18.3118 1.71429 17.8572V14.2341L6.795 9.71805C7.2852 9.28329 7.92272 9.05178 8.57766 9.0707C9.23261 9.08961 9.8557 9.35751 10.32 9.81983L13.7995 13.2918L7.51982 19.5714H3.42857ZM22.2857 17.8572C22.2857 18.3118 22.1051 18.7478 21.7836 19.0693C21.4621 19.3908 21.0261 19.5714 20.5714 19.5714H9.94446L16.4491 13.0668C16.9096 12.6751 17.4941 12.4594 18.0986 12.4578C18.7032 12.4562 19.2887 12.669 19.7513 13.0582L22.2857 15.17V17.8572Z" fill="black"/>
</svg>
