<svg width="20" height="20" viewBox="0 0 20 20" fill="none" xmlns="http://www.w3.org/2000/svg">
<path fill-rule="evenodd" clip-rule="evenodd" d="M9.75 0.25C4.365 0.25 0 4.615 0 10C0 15.385 4.365 19.75 9.75 19.75C15.135 19.75 19.5 15.385 19.5 10C19.5 4.615 15.135 0.25 9.75 0.25ZM10.5 4C10.5 3.80109 10.421 3.61032 10.2803 3.46967C10.1397 3.32902 9.94891 3.25 9.75 3.25C9.55109 3.25 9.36032 3.32902 9.21967 3.46967C9.07902 3.61032 9 3.80109 9 4V10C9 10.414 9.336 10.75 9.75 10.75H14.25C14.4489 10.75 14.6397 10.671 14.7803 10.5303C14.921 10.3897 15 10.1989 15 10C15 9.80109 14.921 9.61032 14.7803 9.46967C14.6397 9.32902 14.4489 9.25 14.25 9.25H10.5V4Z" fill="black"/>
</svg>
