<svg width="20" height="20" viewBox="0 0 20 20" fill="none" xmlns="http://www.w3.org/2000/svg">
<path fill-rule="evenodd" clip-rule="evenodd" d="M4.07571 1.22L9.49429 6.63714C9.56064 6.70366 9.63946 6.75644 9.72624 6.79245C9.81302 6.82846 9.90605 6.84699 10 6.84699C10.094 6.84699 10.187 6.82846 10.2738 6.79245C10.3605 6.75644 10.4394 6.70366 10.5057 6.63714L15.9229 1.22C16.0229 1.12019 16.0911 0.99293 16.1188 0.854337C16.1466 0.715744 16.1325 0.572045 16.0785 0.441428C16.0245 0.31081 15.933 0.199146 15.8155 0.120568C15.6981 0.0419894 15.5599 3.00213e-05 15.4186 0H4.58143C4.44009 3.00213e-05 4.30194 0.0419894 4.18446 0.120568C4.06698 0.199146 3.97546 0.31081 3.92146 0.441428C3.86747 0.572045 3.85345 0.715744 3.88116 0.854337C3.90887 0.99293 3.97708 1.12019 4.07714 1.22H4.07571ZM4.07571 18.78L9.49429 13.3614C9.56064 13.2949 9.63946 13.2421 9.72624 13.2061C9.81302 13.1701 9.90605 13.1516 10 13.1516C10.094 13.1516 10.187 13.1701 10.2738 13.2061C10.3605 13.2421 10.4394 13.2949 10.5057 13.3614L15.9229 18.78C16.0229 18.8798 16.0911 19.0071 16.1188 19.1457C16.1466 19.2843 16.1325 19.428 16.0785 19.5586C16.0245 19.6892 15.933 19.8009 15.8155 19.8794C15.6981 19.958 15.5599 20 15.4186 20H4.58143C4.44009 20 4.30194 19.958 4.18446 19.8794C4.06698 19.8009 3.97546 19.6892 3.92146 19.5586C3.86747 19.428 3.85345 19.2843 3.88116 19.1457C3.90887 19.0071 3.97708 18.8798 4.07714 18.78H4.07571ZM2.5 11.0714H1.07143C0.787268 11.0714 0.514746 10.9585 0.313814 10.7576C0.112882 10.5567 0 10.2842 0 10C0 9.71584 0.112882 9.44332 0.313814 9.24239C0.514746 9.04145 0.787268 8.92857 1.07143 8.92857H2.5C2.78416 8.92857 3.05668 9.04145 3.25761 9.24239C3.45855 9.44332 3.57143 9.71584 3.57143 10C3.57143 10.2842 3.45855 10.5567 3.25761 10.7576C3.05668 10.9585 2.78416 11.0714 2.5 11.0714ZM6.54714 11.0714H7.97571C8.25988 11.0714 8.5324 10.9585 8.73333 10.7576C8.93426 10.5567 9.04714 10.2842 9.04714 10C9.04714 9.71584 8.93426 9.44332 8.73333 9.24239C8.5324 9.04145 8.25988 8.92857 7.97571 8.92857H6.54714C6.26298 8.92857 5.99046 9.04145 5.78953 9.24239C5.5886 9.44332 5.47571 9.71584 5.47571 10C5.47571 10.2842 5.5886 10.5567 5.78953 10.7576C5.99046 10.9585 6.26298 11.0714 6.54714 11.0714ZM13.4529 11.0714H12.0243C11.7401 11.0714 11.4676 10.9585 11.2667 10.7576C11.0657 10.5567 10.9529 10.2842 10.9529 10C10.9529 9.71584 11.0657 9.44332 11.2667 9.24239C11.4676 9.04145 11.7401 8.92857 12.0243 8.92857H13.4529C13.737 8.92857 14.0095 9.04145 14.2105 9.24239C14.4114 9.44332 14.5243 9.71584 14.5243 10C14.5243 10.2842 14.4114 10.5567 14.2105 10.7576C14.0095 10.9585 13.737 11.0714 13.4529 11.0714ZM17.5 11.0714H18.9286C19.2127 11.0714 19.4853 10.9585 19.6862 10.7576C19.8871 10.5567 20 10.2842 20 10C20 9.71584 19.8871 9.44332 19.6862 9.24239C19.4853 9.04145 19.2127 8.92857 18.9286 8.92857H17.5C17.2158 8.92857 16.9433 9.04145 16.7424 9.24239C16.5415 9.44332 16.4286 9.71584 16.4286 10C16.4286 10.2842 16.5415 10.5567 16.7424 10.7576C16.9433 10.9585 17.2158 11.0714 17.5 11.0714Z" fill="black"/>
</svg>
