<svg width="22" height="22" viewBox="0 0 22 22" fill="none" xmlns="http://www.w3.org/2000/svg">
<path fill-rule="evenodd" clip-rule="evenodd" d="M20.0003 0.499573C19.6243 0.499573 19.2573 0.610573 18.9453 0.819573L13.8653 4.20457C12.5906 5.05466 11.4249 6.05781 10.3943 7.19157C12.5112 8.18667 14.2142 9.88968 15.2093 12.0066C16.3431 10.9757 17.3463 9.80963 18.1963 8.53457L21.5823 3.45557C21.773 3.16918 21.8824 2.83644 21.8989 2.49279C21.9154 2.14913 21.8383 1.80744 21.676 1.5041C21.5137 1.20076 21.2721 0.947136 20.977 0.770239C20.6819 0.593342 20.3444 0.499799 20.0003 0.499573ZM11.7003 14.5246C12.3559 14.1605 12.989 13.7574 13.5963 13.3176C13.1927 12.2967 12.5839 11.3694 11.8077 10.5932C11.0314 9.81694 10.1042 9.20819 9.0833 8.80457C8.64345 9.41154 8.24039 10.0443 7.8763 10.6996L7.5983 11.1996C8.45444 11.4459 9.234 11.9056 9.86385 12.5357C10.4937 13.1657 10.9532 13.9454 11.1993 14.8016L11.7013 14.5236L11.7003 14.5246ZM6.1513 12.4996C5.15674 12.4996 4.20291 12.8947 3.49965 13.5979C2.79639 14.3012 2.4013 15.255 2.4013 16.2496C2.40136 16.4551 2.35918 16.6584 2.27738 16.847C2.19557 17.0355 2.0759 17.2053 1.92578 17.3456C1.77566 17.486 1.59829 17.594 1.40468 17.663C1.21108 17.732 1.00536 17.7604 0.800301 17.7466C0.664715 17.7375 0.529201 17.7654 0.408237 17.8273C0.287274 17.8892 0.185408 17.9828 0.113524 18.0981C0.0416401 18.2135 0.00243913 18.3462 0.000110183 18.482C-0.00221877 18.6179 0.0324117 18.7519 0.100301 18.8696C0.677192 19.8717 1.56881 20.6554 2.63674 21.0989C3.70466 21.5424 4.88913 21.6209 6.00625 21.3223C7.12337 21.0236 8.11064 20.3645 8.81476 19.4472C9.51889 18.53 9.90049 17.4059 9.9003 16.2496C9.9003 15.7571 9.80331 15.2695 9.61485 14.8145C9.42639 14.3595 9.15017 13.9461 8.80195 13.5979C8.45373 13.2497 8.04034 12.9735 7.58536 12.785C7.13039 12.5966 6.64376 12.4996 6.1513 12.4996Z" fill="black"/>
</svg>
