<svg width="20" height="20" viewBox="0 0 20 20" fill="none" xmlns="http://www.w3.org/2000/svg">
    <path fill-rule="evenodd" clip-rule="evenodd" d="M10.625 9.94815C12.3986 9.6506 13.75 8.10813 13.75 6.25C13.75 4.17894 12.0711 2.5 10 2.5C7.92894 2.5 6.25 4.17894 6.25 6.25C6.25 8.10813 7.60143 9.6506 9.375 9.94815V17.5H10.625V9.94815Z" fill="#333333"/>
    <mask id="mask0_21_2418" style="mask-type:luminance" maskUnits="userSpaceOnUse" x="3" y="0" width="14" height="20">
    <path d="M16.25 0H3.75V20H16.25V0Z" fill="white"/>
    <path fill-rule="evenodd" clip-rule="evenodd" d="M10.625 9.94815C12.3986 9.6506 13.75 8.10813 13.75 6.25C13.75 4.17894 12.0711 2.5 10 2.5C7.92894 2.5 6.25 4.17894 6.25 6.25C6.25 8.10813 7.60143 9.6506 9.375 9.94815V17.5H10.625V9.94815Z" fill="black"/>
    </mask>
    <g mask="url(#mask0_21_2418)">
    <path d="M10.625 9.94815L10.2114 7.48261L8.125 7.83264V9.94815H10.625ZM9.375 9.94815H11.875V7.83264L9.78864 7.48261L9.375 9.94815ZM9.375 17.5H6.875V20H9.375V17.5ZM10.625 17.5V20H13.125V17.5H10.625ZM11.25 6.25C11.25 6.86689 10.8007 7.38374 10.2114 7.48261L11.0386 12.4137C13.9965 11.9175 16.25 9.34935 16.25 6.25H11.25ZM10 5C10.6904 5 11.25 5.55965 11.25 6.25H16.25C16.25 2.79822 13.4517 0 10 0V5ZM8.75 6.25C8.75 5.55965 9.30965 5 10 5V0C6.54822 0 3.75 2.79822 3.75 6.25H8.75ZM9.78864 7.48261C9.19935 7.38374 8.75 6.86689 8.75 6.25H3.75C3.75 9.34935 6.00351 11.9175 8.96136 12.4137L9.78864 7.48261ZM11.875 17.5V9.94815H6.875V17.5H11.875ZM10.625 15H9.375V20H10.625V15ZM8.125 9.94815V17.5H13.125V9.94815H8.125Z" fill="white"/>
    </g>
    <path d="M10 8.75C11.3807 8.75 12.5 7.63071 12.5 6.25C12.5 4.86929 11.3807 3.75 10 3.75C8.61929 3.75 7.5 4.86929 7.5 6.25C7.5 7.63071 8.61929 8.75 10 8.75Z" fill="white"/>
</svg>
